HIERARCHY
ROOT root
{
	OFFSET 0.000000 0.000000 0.000000
	CHANNELS 6 Xposition Yposition Zposition Zrotation Yrotation Xrotation
	JOINT lhip
	{
		OFFSET 0.058581 -0.082280 -0.017664
		CHANNELS 3 Zrotation Yrotation Xrotation
		JOINT lknee
		{
			OFFSET 0.043451 -0.386469 0.008037
			CHANNELS 3 Zrotation Yrotation Xrotation
			JOINT lankle
			{
				OFFSET -0.014790 -0.426874 -0.037428
				CHANNELS 3 Zrotation Yrotation Xrotation
				JOINT ltoe
				{
					OFFSET 0.041054 -0.060286 0.122042
					CHANNELS 3 Zrotation Yrotation Xrotation
					End Site
					{
						OFFSET 0.000000 0.000000 0.000000
					}
				}
			}
		}
	}
	JOINT rhip
	{
		OFFSET -0.060310 -0.090513 -0.013543
		CHANNELS 3 Zrotation Yrotation Xrotation
		JOINT rknee
		{
			OFFSET -0.043257 -0.383688 -0.004843
			CHANNELS 3 Zrotation Yrotation Xrotation
			JOINT rankle
			{
				OFFSET 0.019056 -0.420046 -0.034562
				CHANNELS 3 Zrotation Yrotation Xrotation
				JOINT rtoe
				{
					OFFSET -0.034840 -0.062106 0.130323
					CHANNELS 3 Zrotation Yrotation Xrotation
					End Site
					{
						OFFSET 0.000000 0.000000 0.000000
					}
				}
			}
		}
	}
	JOINT lowerback
	{
		OFFSET 0.004439 0.124404 -0.038385
		CHANNELS 3 Zrotation Yrotation Xrotation
		JOINT upperback
		{
			OFFSET 0.004488 0.137956 0.026820
			CHANNELS 3 Zrotation Yrotation Xrotation
			JOINT chest
			{
				OFFSET -0.002265 0.056032 0.002855
				CHANNELS 3 Zrotation Yrotation Xrotation
				JOINT lowerneck
				{
					OFFSET -0.013390 0.211636 -0.033468
					CHANNELS 3 Zrotation Yrotation Xrotation
					JOINT upperneck
					{
						OFFSET 0.010113 0.088937 0.050410
						CHANNELS 3 Zrotation Yrotation Xrotation
						End Site
						{
							OFFSET 0.000000 0.000000 0.000000
						}
					}
				}
				JOINT lclavicle
				{
					OFFSET 0.071702 0.114000 -0.018898
					CHANNELS 3 Zrotation Yrotation Xrotation
					JOINT lshoulder
					{
						OFFSET 0.122921 0.045205 -0.019046
						CHANNELS 3 Zrotation Yrotation Xrotation
						JOINT lelbow
						{
							OFFSET 0.255332 -0.015649 -0.022946
							CHANNELS 3 Zrotation Yrotation Xrotation
							JOINT lwrist
							{
								OFFSET 0.265709 0.012698 -0.007375
								CHANNELS 3 Zrotation Yrotation Xrotation
								End Site
								{
									OFFSET 0.000000 0.000000 0.000000
								}
							}
						}
					}
				}
				JOINT rclavicle
				{
					OFFSET -0.082954 0.112472 -0.023707
					CHANNELS 3 Zrotation Yrotation Xrotation
					JOINT rshoulder
					{
						OFFSET -0.113228 0.046853 -0.008472
						CHANNELS 3 Zrotation Yrotation Xrotation
						JOINT relbow
						{
							OFFSET -0.260127 -0.014369 -0.031269
							CHANNELS 3 Zrotation Yrotation Xrotation
							JOINT rwrist
							{
								OFFSET -0.269108 0.006794 -0.006027
								CHANNELS 3 Zrotation Yrotation Xrotation
								End Site
								{
									OFFSET 0.000000 0.000000 0.000000
								}
							}
						}
					}
				}
			}
		}
	}
}
MOTION
Frames: 11
Frame Time: 0.033333
-0.026636 -0.711034 0.496636 168.502163 3.005523 123.930540 19.890155 14.484719 -47.697072 -1.606318 22.361018 123.035277 -7.974360 7.070741 7.212795 0.000000 -0.000000 0.000000 -23.571039 -9.441150 -40.781526 -3.244835 -2.555273 107.012880 -2.959862 -22.184876 -11.601322 0.000000 -0.000000 0.000000 -8.850707 8.925303 61.482639 5.000783 -9.252767 -4.663888 3.298409 -4.462131 -4.410213 -19.280551 12.721561 -24.394717 -6.047855 -1.500181 0.107624 11.688176 -24.235378 -7.239221 10.804895 -6.736909 -24.798497 12.614444 -33.625892 -25.150181 28.966571 -9.560744 -13.454690 11.821711 28.069166 -7.890645 39.228156 28.705669 12.793078 -37.003644 43.105892 -43.449534 -15.012717 7.433856 -20.411958 
-0.022362 -0.712403 0.496911 166.993281 2.551254 124.419552 19.350486 15.284437 -47.398874 -1.599983 23.034050 122.970940 -7.420201 5.743044 6.014500 0.000000 -0.000000 0.000000 -23.942018 -9.521981 -42.159951 -3.588191 -2.064868 108.000073 -3.040130 -21.572657 -12.189881 0.000000 -0.000000 0.000000 -8.509195 6.820583 60.969269 3.842569 -8.783182 -5.442327 2.586210 -4.443004 -4.013494 -18.887870 11.099214 -23.488798 -6.348952 1.853791 0.931056 7.988783 -20.072481 -6.500835 5.403413 -6.893942 -22.814998 18.905196 -43.763671 -26.019378 28.981989 -8.226824 -12.712561 11.168688 26.558392 -8.377192 42.533007 30.531170 13.522178 -38.423646 44.835198 -44.679569 -12.761167 7.233587 -17.297765 
-0.018433 -0.711917 0.496752 165.384262 2.248389 124.320099 19.113123 15.811386 -46.078321 -1.426848 23.525815 122.894939 -7.349725 4.388872 5.639505 0.000000 -0.000000 0.000000 -24.193333 -9.484995 -42.763209 -3.858989 -1.209940 108.324782 -3.712778 -20.816339 -12.198999 0.000000 -0.000000 0.000000 -7.944071 5.099016 61.067601 2.449127 -8.101976 -6.436920 2.292910 -4.442788 -3.727125 -18.476697 8.717414 -21.563564 -5.656881 5.961808 1.504149 3.838540 -17.088897 -5.633583 -0.614326 -6.203767 -19.829232 27.184837 -53.465023 -26.861214 31.319056 -6.276358 -13.005807 10.723789 25.811643 -8.252504 44.591405 31.668510 13.587915 -39.262910 46.687961 -44.328217 -11.960411 6.696888 -15.423607 
-0.014887 -0.711934 0.496104 163.967850 1.373650 124.830338 18.755456 15.565384 -45.372167 -0.882708 24.434978 122.961681 -6.717761 3.920235 5.610455 0.000000 -0.000000 0.000000 -25.337606 -9.567594 -43.644869 -3.831260 -1.032986 108.429653 -3.544118 -21.021373 -12.408550 0.000000 -0.000000 0.000000 -7.539612 3.451866 59.910955 1.675995 -7.094626 -6.764165 1.204508 -4.941428 -2.947057 -16.727966 7.729582 -21.131014 -6.830594 8.762934 2.777757 -1.359867 -13.752976 -5.517846 -4.494028 -6.648901 -16.110152 35.597018 -60.503593 -29.677087 33.480119 -6.695948 -11.617231 11.861004 24.454797 -7.488823 45.087650 33.848465 15.358558 -40.222996 47.595368 -44.610307 -12.524314 6.903662 -14.247256 
-0.010278 -0.713969 0.496199 162.017685 0.743424 125.968548 18.715479 15.583213 -44.921515 -0.339683 25.971472 123.201028 -6.655987 3.262841 6.052223 0.000000 -0.000000 0.000000 -26.228268 -9.282950 -45.757597 -3.928168 -0.715325 108.839845 -3.621531 -21.738691 -12.559434 0.000000 -0.000000 0.000000 -7.473907 2.452118 57.853950 0.840695 -6.126498 -6.906475 0.244142 -5.065950 -2.369697 -15.017129 6.966788 -20.152280 -7.350386 10.840094 3.899625 -5.629441 -10.801990 -3.907731 -8.554351 -6.832860 -13.633643 42.590680 -66.140667 -34.124588 30.289015 -5.645938 -13.064643 12.794478 23.079531 -6.310634 45.720959 36.067267 16.480091 -40.848760 48.358425 -44.686094 -11.732274 6.782006 -12.468045 
-0.004918 -0.714627 0.496609 160.185243 0.021860 126.645634 18.778269 15.416281 -43.928588 0.164004 27.159330 123.313179 -6.604998 2.778696 6.328570 0.000000 -0.000000 0.000000 -27.188204 -8.799688 -47.090125 -4.157463 -0.355545 109.157658 -3.926768 -22.185808 -12.643811 0.000000 -0.000000 0.000000 -7.421703 1.624218 56.270576 0.108007 -5.327036 -6.842310 -0.736494 -5.039006 -2.032067 -13.613233 7.163992 -18.650524 -7.633838 12.197684 4.404144 -8.952356 -8.612152 -2.281003 -11.996876 -7.182640 -11.129804 42.279373 -70.212608 -34.919472 24.886283 -4.339040 -19.404862 13.545138 21.791380 -5.055919 46.859321 38.155215 18.043968 -41.908053 48.328569 -45.374127 -11.153976 6.996647 -10.211564 
0.000911 -0.714712 0.497881 158.385108 -0.619682 127.256382 18.804944 15.285888 -42.728832 0.513769 28.073937 123.201983 -6.075096 2.129245 5.893738 0.000000 -0.000000 0.000000 -27.934659 -8.332557 -48.407789 -4.176604 -0.139753 109.358317 -4.090412 -22.722246 -12.705188 0.000000 -0.000000 0.000000 -7.283104 0.869382 55.062281 -0.583865 -4.605670 -7.184162 -1.758190 -5.398046 -1.338928 -12.406264 7.924137 -18.262495 -8.016930 13.695414 5.286299 -11.782411 -7.394730 -0.598132 -13.898705 -7.582377 -8.657959 32.885201 -71.871479 -27.786748 20.408906 -4.440943 -24.737194 13.942984 21.054305 -4.261960 48.879997 40.119862 20.416131 -43.152678 47.608603 -45.940521 -9.987035 7.085124 -8.180445 
0.006567 -0.713882 0.499080 156.973908 -1.173101 127.704862 18.736867 15.046220 -41.697608 0.396067 28.854240 122.918673 -5.432829 2.129670 4.877267 0.000000 -0.000000 0.000000 -28.603789 -7.911137 -49.157883 -3.818497 -0.263344 109.352817 -4.021190 -23.481952 -12.871357 0.000000 -0.000000 0.000000 -7.095499 1.056789 53.473420 -0.203548 -4.128202 -6.710085 -2.061779 -5.500024 -1.127095 -11.282389 9.263035 -16.980028 -9.583766 14.412438 5.738810 -14.021181 -8.281885 1.654948 -16.741479 -8.630344 -7.628848 18.982667 -70.134851 -16.272945 17.951894 -5.316089 -26.518263 14.314549 20.734049 -3.266005 49.338330 41.105237 21.708940 -44.558921 47.217139 -46.598967 -8.446224 6.237825 -6.601321 
0.011602 -0.713319 0.500467 155.715506 -1.563620 128.276398 18.020066 15.392823 -41.431032 0.482032 28.801069 122.901416 -4.045071 1.710838 3.613763 0.000000 -0.000000 0.000000 -28.790233 -7.682262 -49.958718 -4.309699 0.377150 109.498427 -4.098477 -23.239475 -13.026993 0.000000 -0.000000 0.000000 -6.451091 0.723845 52.432202 -0.984262 -3.973106 -7.018936 -1.617501 -5.608174 -0.970871 -11.337339 7.335162 -16.198510 -8.433824 18.234682 6.340117 -16.160053 -11.000457 2.465156 -19.168638 -8.246867 -5.813534 17.081579 -66.345178 -12.952661 23.759520 -4.426720 -23.320941 13.122612 22.147755 -3.621030 50.534391 39.776656 21.503591 -45.480573 47.165441 -47.112066 -6.901437 5.839690 -4.284992 
0.016987 -0.711433 0.501394 154.555673 -1.854631 128.598882 17.798976 15.457094 -40.683109 0.983490 28.965742 122.918299 -3.295900 1.701086 2.647888 0.000000 -0.000000 0.000000 -29.174883 -7.241150 -50.261000 -4.559646 0.740690 109.472946 -3.847896 -23.003170 -12.693026 0.000000 -0.000000 0.000000 -5.928190 1.096159 51.765405 -1.409121 -3.396927 -7.519830 -1.325383 -5.709335 -0.917174 -10.400652 6.914287 -15.068168 -7.742600 20.252397 7.666166 -19.027769 -13.245869 3.684240 -19.588105 -9.596883 -6.594390 21.123834 -60.638824 -18.492496 24.856157 -4.941206 -23.126907 13.811622 22.458544 -3.077438 50.618594 38.941838 21.688293 -46.754022 47.053785 -47.374213 -6.692891 6.067031 -3.319072 
0.023572 -0.710540 0.503325 152.708104 -1.707358 128.436757 17.803658 16.253245 -39.130706 0.870563 29.057302 122.560243 -2.995002 1.687502 1.628574 0.000000 -0.000000 0.000000 -29.013395 -6.047589 -50.942578 -4.214162 1.550337 109.568728 -4.106903 -23.047077 -13.144792 0.000000 -0.000000 0.000000 -5.965910 2.093663 51.881898 -2.088683 -2.582877 -8.174976 -1.225872 -5.985541 -0.412072 -9.161510 7.979451 -16.185224 -7.194988 21.089581 10.791541 -20.729139 -14.375075 5.620565 -17.323674 -10.183768 -9.380871 21.084275 -57.471784 -21.521168 20.662411 -6.208192 -23.023959 14.390875 22.763536 -2.559024 50.977862 39.177473 22.203109 -47.562000 46.689937 -47.683753 -6.185189 5.905009 -2.761894 
